<?xml version="1.0" encoding="utf-8"?>
<!-- Generator: Adobe Illustrator 21.1.0, SVG Export Plug-In . SVG Version: 6.00 Build 0)  -->
<svg version="1.1" xmlns="http://www.w3.org/2000/svg" xmlns:xlink="http://www.w3.org/1999/xlink" x="0px" y="0px"
	 viewBox="0 0 693 693" style="enable-background:new 0 0 693 693;" xml:space="preserve">
<style type="text/css">
	.st0{fill:#FFFFFF;}
	.st1{fill:#FF7546;}
</style>
<g id="Layer_1">
</g>
<g id="Layer_2">
	<g>
		<g>
			<path class="st0" d="M658.4,346.5c0-2.7,0-5.3-0.1-8h34.6C688.7,153.5,539.5,4.3,354.5,0.1v34.6c-2.7-0.1-5.3-0.1-8-0.1
				s-5.3,0-8,0.1V0.1C153.5,4.3,4.3,153.5,0.1,338.5h34.6c-0.1,2.7-0.1,5.3-0.1,8s0,5.3,0.1,8H0.1c4.2,185,153.4,334.2,338.4,338.4
				v-34.6c2.7,0.1,5.3,0.1,8,0.1s5.3,0,8-0.1v34.6c185-4.2,334.2-153.4,338.4-338.4h-34.6C658.4,351.8,658.4,349.2,658.4,346.5z
				 M577.5,448.7l-207.1-69.8v61.4h0v79.1c-7.8,1.1-15.7,1.6-23.8,1.6c-8.2,0-16.2-0.6-24-1.7v-88.8h0V312.3l270.1,91
				C589,419.1,583.9,434.2,577.5,448.7z"/>
		</g>
		<path class="st1" d="M105.4,271.1l238.5,82.1l5.2-15.1L110.6,256C108.7,261,107,266,105.4,271.1z"/>
	</g>
</g>
</svg>
